<svg xmlns="http://www.w3.org/2000/svg" viewBox="0 0 512 512">
  <defs>
    <linearGradient id="grad" x1="0%" y1="0%" x2="100%" y2="100%">
      <stop offset="0%" style="stop-color:#059669;stop-opacity:1" />
      <stop offset="100%" style="stop-color:#10b981;stop-opacity:1" />
    </linearGradient>
  </defs>
  <rect width="512" height="512" rx="112" fill="url(#grad)" />
  <g fill="#ffffff" transform="scale(0.6) translate(170, 170)">
    <!-- SVG Path for memory symbol -->
    <path d="M426.667 341.333H469.333V298.667H426.667V213.333H469.333V170.667H426.667V128C426.667 104.533 407.467 85.333 384 85.333H341.333V42.667H298.667V85.333H213.333V42.667H170.667V85.333H128C104.533 85.333 85.333 104.533 85.333 128V170.667H42.667V213.333H85.333V298.667H42.667V341.333H85.333V384C85.333 407.467 104.533 426.667 128 426.667H170.667V469.333H213.333V426.667H298.667V469.333H341.333V426.667H384C407.467 426.667 426.667 407.467 426.667 384V341.333ZM341.333 341.333H170.667V170.667H341.333V341.333ZM298.667 213.333H213.333V298.667H298.667V213.333Z" />
  </g>
</svg>
